<mxfile host="app.diagrams.net" modified="2021-12-09T07:58:20.056Z" agent="5.0 (Windows NT 6.3; Win64; x64) AppleWebKit/537.36 (KHTML, like Gecko) Chrome/96.0.4664.93 Safari/537.36" etag="j8eNRTAsSNHEiwnaVDn0" version="15.9.4" type="github">
  <diagram id="bB7Jo88Dkk5dAmgTvR2b" name="Page-1">
    <mxGraphModel dx="691" dy="908" grid="1" gridSize="10" guides="1" tooltips="1" connect="1" arrows="1" fold="1" page="1" pageScale="1" pageWidth="980" pageHeight="690" background="#ffffff" math="1" shadow="0">
      <root>
        <mxCell id="0" />
        <mxCell id="1" parent="0" />
        <mxCell id="x7hon7UcezSNEN2OE0OE-3" value="" style="rounded=1;whiteSpace=wrap;html=1;fillColor=#CCFFFF;gradientColor=none;gradientDirection=east;strokeColor=#000000;opacity=40;" vertex="1" parent="1">
          <mxGeometry x="140" y="160" width="90" height="40" as="geometry" />
        </mxCell>
        <mxCell id="x7hon7UcezSNEN2OE0OE-2" value="$$A-(B-C)$$" style="text;html=1;align=center;verticalAlign=middle;resizable=0;points=[];autosize=1;strokeColor=none;fillColor=none;gradientColor=#ffffff;opacity=0;" vertex="1" parent="1">
          <mxGeometry x="145" y="170" width="80" height="20" as="geometry" />
        </mxCell>
        <mxCell id="x7hon7UcezSNEN2OE0OE-4" value="$$A-B+C$$" style="rounded=1;whiteSpace=wrap;html=1;" vertex="1" parent="1">
          <mxGeometry x="30" y="240" width="90" height="40" as="geometry" />
        </mxCell>
        <mxCell id="x7hon7UcezSNEN2OE0OE-5" value="$$A-(B+C)$$" style="rounded=1;whiteSpace=wrap;html=1;" vertex="1" parent="1">
          <mxGeometry x="140" y="240" width="90" height="40" as="geometry" />
        </mxCell>
        <mxCell id="x7hon7UcezSNEN2OE0OE-6" value="$$A-B-C$$" style="rounded=1;whiteSpace=wrap;html=1;" vertex="1" parent="1">
          <mxGeometry x="250" y="240" width="90" height="40" as="geometry" />
        </mxCell>
        <mxCell id="x7hon7UcezSNEN2OE0OE-7" value="$$\mathcal{X}$$" style="text;html=1;align=center;verticalAlign=middle;resizable=0;points=[];autosize=1;strokeColor=none;fillColor=none;" vertex="1" parent="1">
          <mxGeometry x="25" y="220" width="100" height="20" as="geometry" />
        </mxCell>
        <mxCell id="x7hon7UcezSNEN2OE0OE-8" value="$$\mathcal{Y}$$" style="text;html=1;align=center;verticalAlign=middle;resizable=0;points=[];autosize=1;strokeColor=none;fillColor=none;" vertex="1" parent="1">
          <mxGeometry x="135" y="220" width="100" height="20" as="geometry" />
        </mxCell>
        <mxCell id="x7hon7UcezSNEN2OE0OE-9" value="$$\mathcal{Z}$$" style="text;html=1;align=center;verticalAlign=middle;resizable=0;points=[];autosize=1;strokeColor=none;fillColor=none;" vertex="1" parent="1">
          <mxGeometry x="245" y="220" width="100" height="20" as="geometry" />
        </mxCell>
        <mxCell id="x7hon7UcezSNEN2OE0OE-10" value="哪一個是最正確?" style="text;html=1;strokeColor=none;fillColor=none;align=center;verticalAlign=middle;whiteSpace=wrap;rounded=0;" vertex="1" parent="1">
          <mxGeometry x="250" y="165" width="60" height="30" as="geometry" />
        </mxCell>
        <mxCell id="x7hon7UcezSNEN2OE0OE-14" value="$$-\mathcal{x^2}-2&lt;br&gt;\mathcal{&lt;br&gt;x}+(6\mathcal{&lt;br&gt;x}^2\div3)$$" style="text;html=1;align=center;verticalAlign=middle;resizable=0;points=[];autosize=1;strokeColor=none;fillColor=none;" vertex="1" parent="1">
          <mxGeometry x="105" y="360" width="120" height="60" as="geometry" />
        </mxCell>
        <mxCell id="x7hon7UcezSNEN2OE0OE-15" value="$$\lgroup(\frac{&lt;br&gt;\mathcal{x}-7}{11}) + \mathcal{x}\rgroup*3=273\\&lt;br&gt;\mathcal{x}= ?$$" style="text;html=1;align=center;verticalAlign=middle;resizable=0;points=[];autosize=1;strokeColor=none;fillColor=none;" vertex="1" parent="1">
          <mxGeometry x="25" y="445" width="270" height="50" as="geometry" />
        </mxCell>
        <mxCell id="x7hon7UcezSNEN2OE0OE-18" value="$$&lt;br&gt;&lt;br&gt;\begin{align}&lt;br&gt;\lgroup(\frac{&lt;br&gt;\mathcal{L}-4}{3}) + \mathcal{L}\rgroup*2=104\\&lt;br&gt;\lgroup(\frac{&lt;br&gt;\mathcal{L}-4}{3}) + \mathcal{L}\rgroup*2\div2=104\div2\\&lt;br&gt;(\frac{&lt;br&gt;\mathcal{L}-4}{3}) + \mathcal{L}=52\\&lt;br&gt;\end{align}&lt;br&gt;&lt;br&gt;$$" style="text;html=1;align=center;verticalAlign=middle;resizable=0;points=[];autosize=1;strokeColor=none;fillColor=none;" vertex="1" parent="1">
          <mxGeometry x="675" y="-20" width="320" height="170" as="geometry" />
        </mxCell>
        <mxCell id="x7hon7UcezSNEN2OE0OE-20" value="&lt;pre style=&quot;margin-top: 0px ; margin-bottom: 0px ; padding: 12px ; border: 0px ; font-stretch: inherit ; line-height: 1.30769 ; font-size: 13px ; vertical-align: baseline ; box-sizing: inherit ; width: auto ; max-height: 600px ; overflow: auto ; border-radius: 5px ; overflow-wrap: normal ; text-align: left&quot;&gt;&lt;br&gt;&lt;/pre&gt;" style="text;html=1;align=center;verticalAlign=middle;resizable=0;points=[];autosize=1;strokeColor=none;fillColor=none;fontColor=#FF3333;" vertex="1" parent="1">
          <mxGeometry x="800" y="155" width="40" height="50" as="geometry" />
        </mxCell>
        <mxCell id="x7hon7UcezSNEN2OE0OE-21" value="&lt;pre style=&quot;margin-top: 0px ; margin-bottom: 0px ; padding: 12px ; border: 0px ; font-stretch: inherit ; line-height: 1.30769 ; vertical-align: baseline ; box-sizing: inherit ; width: auto ; max-height: 600px ; overflow: auto ; border-radius: 5px ; overflow-wrap: normal ; text-align: left&quot;&gt;&lt;span style=&quot;font-size: 13px&quot;&gt;&lt;br&gt;&lt;/span&gt;&lt;/pre&gt;" style="text;html=1;align=center;verticalAlign=middle;resizable=0;points=[];autosize=1;strokeColor=none;fillColor=none;fontColor=none;" vertex="1" parent="1">
          <mxGeometry x="850" y="155" width="40" height="50" as="geometry" />
        </mxCell>
      </root>
    </mxGraphModel>
  </diagram>
</mxfile>
